<svg width="202" height="28" viewBox="0 0 202 28" fill="none" xmlns="http://www.w3.org/2000/svg">
<g clip-path="url(#clip0_306_25438)">
<path d="M11.5696 28V6.96997H0V0H32.1401V6.96997H20.5705V28H11.5696Z" fill="#E22131"/>
<path d="M47.1524 28C42.286 28 38.6991 26.8529 36.3897 24.5567C34.0804 22.2624 32.9258 18.7493 32.9258 14.0213C32.9258 9.29329 34.0804 5.77439 36.3897 3.46464C38.6991 1.15488 42.2879 0 47.1524 0H54.2859C59.1524 0 62.7393 1.15488 65.0486 3.46464C67.356 5.77439 68.5126 9.29329 68.5126 14.0213C68.5126 18.7493 67.3579 22.2624 65.0486 24.5567C62.7393 26.8529 59.1524 28 54.2859 28H47.1524ZM52.088 21.28C53.6365 21.28 54.8873 21.1075 55.8421 20.7607C56.797 20.4158 57.5424 19.9178 58.0823 19.2667C58.6221 18.6176 58.9872 17.8502 59.1812 16.9647C59.3752 16.0792 59.4713 15.0987 59.4713 14.0194C59.4713 12.9401 59.3733 11.9596 59.1812 11.074C58.9872 10.1885 58.6221 9.42893 58.0823 8.79336C57.5424 8.15779 56.797 7.66754 55.8421 7.32069C54.8873 6.97578 53.6365 6.80138 52.088 6.80138H48.9372C47.5002 6.80138 46.3244 6.97384 45.4118 7.32069C44.4992 7.66754 43.7864 8.15779 43.2754 8.79336C42.7644 9.43087 42.4185 10.1905 42.2399 11.074C42.0593 11.9596 41.9709 12.9401 41.9709 14.0194C41.9709 15.0987 42.0612 16.0792 42.2399 16.9647C42.4185 17.8502 42.7644 18.6176 43.2754 19.2667C43.7864 19.9178 44.4992 20.4138 45.4118 20.7607C46.3244 21.1075 47.5002 21.28 48.9372 21.28H52.088Z" fill="#E22131"/>
<path d="M103.512 28V9.95599C103.512 9.07045 103.214 8.37287 102.62 7.86132C102.027 7.34976 101.204 7.09398 100.153 7.09398H96.0477V28.0019H87.2966V7.09398H79.9978V28.0019H71.1641V0H101.979C105.406 0 107.979 0.718893 109.692 2.15668C111.406 3.59446 112.263 5.68332 112.263 8.42132V28H103.512Z" fill="#E22131"/>
<path d="M128.811 28C123.944 28 120.357 26.8529 118.048 24.5567C115.741 22.2624 114.586 18.7493 114.586 14.0213C114.586 9.29329 115.741 5.77439 118.048 3.46464C120.355 1.15682 123.944 0 128.811 0H135.944C140.811 0 144.398 1.15488 146.707 3.46464C149.014 5.77439 150.171 9.29329 150.171 14.0213C150.171 18.7493 149.016 22.2624 146.707 24.5567C144.398 26.8529 140.811 28 135.944 28H128.811ZM133.744 21.28C135.293 21.28 136.544 21.1075 137.498 20.7607C138.453 20.4158 139.199 19.9178 139.739 19.2667C140.278 18.6176 140.643 17.8502 140.837 16.9647C141.032 16.0792 141.128 15.0987 141.128 14.0194C141.128 12.9401 141.03 11.9596 140.837 11.074C140.643 10.1885 140.278 9.42893 139.739 8.79336C139.199 8.15779 138.453 7.66754 137.498 7.32069C136.544 6.97578 135.293 6.80138 133.744 6.80138H130.594C129.156 6.80138 127.981 6.97384 127.068 7.32069C126.156 7.66754 125.443 8.15779 124.934 8.79336C124.421 9.43087 124.077 10.1905 123.896 11.074C123.716 11.9596 123.627 12.9401 123.627 14.0194C123.627 15.0987 123.718 16.0792 123.896 16.9647C124.075 17.8502 124.421 18.6176 124.934 19.2667C125.445 19.9178 126.157 20.4138 127.068 20.7607C127.981 21.1075 129.156 21.28 130.594 21.28H133.744Z" fill="#E22131"/>
<path d="M161.783 0H152.824V28H161.783V0Z" fill="#E22131"/>
<path d="M164.977 28V0H173.933V20.5747H192.389V28H164.977Z" fill="#E22131"/>
<path d="M194.001 2.21899H192.508V1.51172H196.241V2.21899H194.748V6.46646H194.001V2.21899Z" fill="#E22131"/>
<path d="M196.949 1.51172H197.579L199.347 5.32514L201.116 1.51172H201.745V6.46646H200.999V3.39905L199.583 6.46646H199.111L197.697 3.39905V6.46646H196.949V1.51172Z" fill="#E22131"/>
</g>
<defs>
<clipPath id="clip0_306_25438">
<rect width="201.744" height="28" fill="white"/>
</clipPath>
</defs>
</svg>
